<svg width="20" height="20" viewBox="0 0 20 20" fill="none" xmlns="http://www.w3.org/2000/svg">
<mask id="mask0_24_180" style="mask-type:alpha" maskUnits="userSpaceOnUse" x="0" y="0" width="20" height="20">
<rect width="20" height="20" fill="#D9D9D9"/>
</mask>
<g mask="url(#mask0_24_180)">
<path d="M9.16675 14.1667H10.8334V9.16675H9.16675V14.1667ZM10.0001 7.50008C10.2362 7.50008 10.4341 7.42022 10.5938 7.2605C10.7536 7.10078 10.8334 6.90286 10.8334 6.66675C10.8334 6.43064 10.7536 6.23272 10.5938 6.073C10.4341 5.91328 10.2362 5.83342 10.0001 5.83342C9.76397 5.83342 9.56605 5.91328 9.40633 6.073C9.24661 6.23272 9.16675 6.43064 9.16675 6.66675C9.16675 6.90286 9.24661 7.10078 9.40633 7.2605C9.56605 7.42022 9.76397 7.50008 10.0001 7.50008ZM10.0001 18.3334C8.8473 18.3334 7.76397 18.1147 6.75008 17.6772C5.73619 17.2397 4.85425 16.6459 4.10425 15.8959C3.35425 15.1459 2.7605 14.264 2.323 13.2501C1.8855 12.2362 1.66675 11.1529 1.66675 10.0001C1.66675 8.8473 1.8855 7.76397 2.323 6.75008C2.7605 5.73619 3.35425 4.85425 4.10425 4.10425C4.85425 3.35425 5.73619 2.7605 6.75008 2.323C7.76397 1.8855 8.8473 1.66675 10.0001 1.66675C11.1529 1.66675 12.2362 1.8855 13.2501 2.323C14.264 2.7605 15.1459 3.35425 15.8959 4.10425C16.6459 4.85425 17.2397 5.73619 17.6772 6.75008C18.1147 7.76397 18.3334 8.8473 18.3334 10.0001C18.3334 11.1529 18.1147 12.2362 17.6772 13.2501C17.2397 14.264 16.6459 15.1459 15.8959 15.8959C15.1459 16.6459 14.264 17.2397 13.2501 17.6772C12.2362 18.1147 11.1529 18.3334 10.0001 18.3334ZM10.0001 16.6667C11.8612 16.6667 13.4376 16.0209 14.7292 14.7292C16.0209 13.4376 16.6667 11.8612 16.6667 10.0001C16.6667 8.13897 16.0209 6.56258 14.7292 5.27092C13.4376 3.97925 11.8612 3.33341 10.0001 3.33341C8.13897 3.33341 6.56258 3.97925 5.27092 5.27092C3.97925 6.56258 3.33341 8.13897 3.33341 10.0001C3.33341 11.8612 3.97925 13.4376 5.27092 14.7292C6.56258 16.0209 8.13897 16.6667 10.0001 16.6667Z" fill="#404040" fill-opacity="0.87"/>
</g>
</svg>
