<svg width="20" height="25" viewBox="0 0 20 25" fill="none" xmlns="http://www.w3.org/2000/svg">
<path d="M8.875 23.5H11.125" stroke="#901623" stroke-width="2" stroke-linecap="round" stroke-linejoin="round"/>
<path d="M10 3.25C10.6213 3.25 11.125 2.74632 11.125 2.125C11.125 1.50368 10.6213 1 10 1C9.37868 1 8.875 1.50368 8.875 2.125C8.875 2.74632 9.37868 3.25 10 3.25Z" stroke="#901623" stroke-width="2"/>
<path d="M3.25 20.1251V10.0001C3.25 8.71309 3.61 7.50934 4.2355 6.48559M3.25 20.1251H16.75M3.25 20.1251H1M16.75 20.1251V19.0001M16.75 20.1251H17.875M7.74887 3.63484C8.76715 3.27462 9.857 3.16402 10.9269 3.31234C11.9968 3.46066 13.0154 3.86355 13.8973 4.48719C14.7792 5.11082 15.4986 5.93699 15.9949 6.89628C16.4913 7.85557 16.7503 8.91997 16.75 10.0001V12.636" stroke="#901623" stroke-width="2" stroke-linecap="round" stroke-linejoin="round"/>
<path d="M1 3.25L19 21.25" stroke="#901623" stroke-width="2" stroke-linecap="round"/>
</svg>
