<svg width="16" height="18" viewBox="0 0 16 18" fill="none" xmlns="http://www.w3.org/2000/svg">
<path d="M2.77806 5.0826C2.67801 5.05521 2.58499 5.00539 2.5056 4.93667C2.4262 4.86795 2.36237 4.78202 2.31861 4.68494C2.27486 4.58787 2.25226 4.48203 2.2524 4.37491C2.25254 4.26779 2.27543 4.16201 2.31945 4.06506L3.8827 0.619664C3.93964 0.493494 4.03022 0.386781 4.14377 0.312083C4.25732 0.237384 4.38913 0.197809 4.52368 0.198014C4.65823 0.198219 4.78992 0.238195 4.90326 0.313239C5.0166 0.388282 5.10687 0.49527 5.16345 0.621613L5.85279 2.15084C5.87741 2.14063 5.90256 2.13184 5.92813 2.12453C7.55449 1.67372 9.27895 1.78892 10.8358 2.45237C12.3927 3.11581 13.6956 4.2907 14.5437 5.796C15.3919 7.3013 15.7383 9.05348 15.5295 10.7826C15.3207 12.5117 14.5683 14.1218 13.3883 15.3647C12.2083 16.6077 10.6661 17.4146 8.99936 17.6611C7.33261 17.9076 5.63379 17.58 4.16465 16.7288C2.6955 15.8776 1.53756 14.5501 0.869227 12.9507C0.200893 11.3513 0.0592548 9.56882 0.466136 7.87791C0.488644 7.78473 0.528664 7.69705 0.583912 7.61988C0.639159 7.54271 0.708553 7.47755 0.788129 7.42814C0.867706 7.37872 0.955908 7.34601 1.0477 7.33188C1.13949 7.31774 1.23307 7.32245 1.3231 7.34575C1.41313 7.36904 1.49785 7.41046 1.57241 7.46764C1.64698 7.52482 1.70993 7.59664 1.75768 7.679C1.80542 7.76136 1.83703 7.85265 1.85069 7.94765C1.86435 8.04265 1.85979 8.1395 1.83728 8.23268C1.50732 9.60512 1.62015 11.0516 2.15857 12.3515C2.69699 13.6514 3.63143 14.7333 4.81939 15.4323C6.00734 16.1313 7.38358 16.4089 8.73821 16.2229C10.0928 16.0368 11.3515 15.3973 12.3222 14.4019C13.2929 13.4064 13.9224 12.1097 14.1146 10.7095C14.3068 9.30925 14.0513 7.88238 13.3869 6.6465C12.7225 5.41062 11.6858 4.43356 10.4348 3.86437C9.18387 3.29517 7.78737 3.16507 6.45832 3.49392L7.15519 5.03679C7.21224 5.1628 7.23335 5.30305 7.21604 5.44104C7.19873 5.57904 7.14373 5.70906 7.05749 5.81582C6.97125 5.92257 6.85736 6.00164 6.7292 6.04372C6.60104 6.0858 6.46394 6.08914 6.33401 6.05336L2.77806 5.0826Z" fill="white"/>
</svg>
