<svg width="28" height="28" viewBox="0 0 28 28" fill="none" xmlns="http://www.w3.org/2000/svg">
<mask id="mask0_6_123" style="mask-type:alpha" maskUnits="userSpaceOnUse" x="0" y="0" width="28" height="28">
<rect width="28" height="28" fill="#D9D9D9"/>
</mask>
<g mask="url(#mask0_6_123)">
<path d="M10.7916 25.6667L10.3249 21.9334C10.0721 21.8362 9.83393 21.7195 9.61032 21.5834C9.38671 21.4473 9.16796 21.3014 8.95407 21.1459L5.48324 22.6042L2.2749 17.0625L5.27907 14.7875C5.25962 14.6514 5.2499 14.5202 5.2499 14.3938V13.6063C5.2499 13.4799 5.25962 13.3487 5.27907 13.2125L2.2749 10.9375L5.48324 5.39587L8.95407 6.85421C9.16796 6.69865 9.39157 6.55282 9.6249 6.41671C9.85824 6.2806 10.0916 6.16393 10.3249 6.06671L10.7916 2.33337H17.2082L17.6749 6.06671C17.9277 6.16393 18.1659 6.2806 18.3895 6.41671C18.6131 6.55282 18.8318 6.69865 19.0457 6.85421L22.5166 5.39587L25.7249 10.9375L22.7207 13.2125C22.7402 13.3487 22.7499 13.4799 22.7499 13.6063V14.3938C22.7499 14.5202 22.7305 14.6514 22.6916 14.7875L25.6957 17.0625L22.4874 22.6042L19.0457 21.1459C18.8318 21.3014 18.6082 21.4473 18.3749 21.5834C18.1416 21.7195 17.9082 21.8362 17.6749 21.9334L17.2082 25.6667H10.7916ZM12.8332 23.3334H15.1374L15.5457 20.2417C16.1485 20.0862 16.7075 19.8577 17.2228 19.5563C17.7381 19.2549 18.2096 18.8903 18.6374 18.4625L21.5249 19.6584L22.6624 17.675L20.1541 15.7792C20.2513 15.507 20.3193 15.2202 20.3582 14.9188C20.3971 14.6174 20.4166 14.3112 20.4166 14C20.4166 13.6889 20.3971 13.3827 20.3582 13.0813C20.3193 12.7799 20.2513 12.4931 20.1541 12.2209L22.6624 10.325L21.5249 8.34171L18.6374 9.56671C18.2096 9.11949 17.7381 8.74518 17.2228 8.44379C16.7075 8.1424 16.1485 7.91393 15.5457 7.75837L15.1666 4.66671H12.8624L12.4541 7.75837C11.8513 7.91393 11.2923 8.1424 10.777 8.44379C10.2617 8.74518 9.79018 9.10976 9.3624 9.53754L6.4749 8.34171L5.3374 10.325L7.84574 12.1917C7.74851 12.4834 7.68046 12.775 7.64157 13.0667C7.60268 13.3584 7.58324 13.6695 7.58324 14C7.58324 14.3112 7.60268 14.6125 7.64157 14.9042C7.68046 15.1959 7.74851 15.4875 7.84574 15.7792L5.3374 17.675L6.4749 19.6584L9.3624 18.4334C9.79018 18.8806 10.2617 19.2549 10.777 19.5563C11.2923 19.8577 11.8513 20.0862 12.4541 20.2417L12.8332 23.3334ZM14.0582 18.0834C15.186 18.0834 16.1485 17.6848 16.9457 16.8875C17.743 16.0903 18.1416 15.1278 18.1416 14C18.1416 12.8723 17.743 11.9098 16.9457 11.1125C16.1485 10.3153 15.186 9.91671 14.0582 9.91671C12.911 9.91671 11.9437 10.3153 11.1562 11.1125C10.3687 11.9098 9.9749 12.8723 9.9749 14C9.9749 15.1278 10.3687 16.0903 11.1562 16.8875C11.9437 17.6848 12.911 18.0834 14.0582 18.0834Z" fill="white"/>
</g>
</svg>
