<svg>
    <symbol id="first" width="24" height="24" viewBox="0 0 24 24" fill="none" xmlns="http://www.w3.org/2000/svg">
        <mask id="mask0_24_309" style="mask-type:alpha" maskUnits="userSpaceOnUse" x="0" y="0" width="24" height="24">
            <rect width="24" height="24" fill="#D9D9D9"/>
        </mask>
        <g mask="url(#mask0_24_309)">
            <path d="M8 16H20V4H18V11L15.5 9.5L13 11V4H8V16ZM8 18C7.45 18 6.97917 17.8042 6.5875 17.4125C6.19583 17.0208 6 16.55 6 16V4C6 3.45 6.19583 2.97917 6.5875 2.5875C6.97917 2.19583 7.45 2 8 2H20C20.55 2 21.0208 2.19583 21.4125 2.5875C21.8042 2.97917 22 3.45 22 4V16C22 16.55 21.8042 17.0208 21.4125 17.4125C21.0208 17.8042 20.55 18 20 18H8ZM4 22C3.45 22 2.97917 21.8042 2.5875 21.4125C2.19583 21.0208 2 20.55 2 20V6H4V20H18V22H4Z" fill="#A42638"/>
        </g>
    </symbol>
    <symbol id="second" width="24" height="24" viewBox="0 0 24 24" fill="none" xmlns="http://www.w3.org/2000/svg">
        <mask id="mask0_7_43561" style="mask-type:alpha" maskUnits="userSpaceOnUse" x="0" y="0" width="24" height="24">
            <rect width="24" height="24" fill="#D9D9D9"/>
        </mask>
        <g mask="url(#mask0_7_43561)">
            <path d="M6 15H13L15 13H6V15ZM6 11H12V9H6V11ZM4 7V17H11L9 19H2V5H22V8H20V7H4ZM22.9 12.3C22.9833 12.3833 23.025 12.475 23.025 12.575C23.025 12.675 22.9833 12.7667 22.9 12.85L22 13.75L20.25 12L21.15 11.1C21.2333 11.0167 21.325 10.975 21.425 10.975C21.525 10.975 21.6167 11.0167 21.7 11.1L22.9 12.3ZM13 21V19.25L19.65 12.6L21.4 14.35L14.75 21H13Z" fill="#1C1B1F"/>
        </g>
    </symbol>
</svg>