<svg width="18" height="18" viewBox="0 0 18 18" fill="none" xmlns="http://www.w3.org/2000/svg">
<mask id="mask0_1082_61" style="mask-type:alpha" maskUnits="userSpaceOnUse" x="0" y="0" width="18" height="18">
<rect width="18" height="18" fill="#D9D9D9"/>
</mask>
<g mask="url(#mask0_1082_61)">
<path d="M6.1875 15.75L2.25 11.8125V6.1875L6.1875 2.25H11.8125L15.75 6.1875V11.8125L11.8125 15.75H6.1875ZM6.8625 12.1875L9 10.05L11.1375 12.1875L12.1875 11.1375L10.05 9L12.1875 6.8625L11.1375 5.8125L9 7.95L6.8625 5.8125L5.8125 6.8625L7.95 9L5.8125 11.1375L6.8625 12.1875ZM6.825 14.25H11.175L14.25 11.175V6.825L11.175 3.75H6.825L3.75 6.825V11.175L6.825 14.25Z" fill="#930E0E"/>
</g>
</svg>
