<?xml version="1.0" encoding="utf-8"?>
<svg viewBox="15.603 165.991 60.061 60.039" xmlns="http://www.w3.org/2000/svg">
  <defs>
    <linearGradient id="paint0_linear_1006_3142" x1="0" y1="30" x2="60" y2="30" gradientUnits="userSpaceOnUse" gradientTransform="matrix(1, 0, 0, 1, 15.623837, 165.996277)">
      <stop stop-color="#ECE9E6"/>
      <stop offset="1" stop-color="white"/>
    </linearGradient>
  </defs>
  <rect width="60" height="60" rx="15" fill="url(#paint0_linear_1006_3142)" x="15.624" y="165.996" style="" transform="matrix(1, 0, 0, 1, 0, 2.842170943040401e-14)"/>
  <g transform="matrix(0.3223020136356354, 0, 0, 0.3210750222206116, 55.37739944458008, 130.7548370361328)" style="">
    <polygon class="fill" points="-46.527 168.687 -30.507 152.457 -14.007 168.687 -0.127 168.687 16.133 152.427 16.133 138.557 -7.067 161.757 -30.507 138.587 -53.467 161.757 -76.657 138.557 -76.657 152.427 -60.397 168.687 -46.527 168.687" style="fill: rgb(144, 24, 37);"/>
    <polygon class="fill" points="-39.007 168.687 -30.267 168.687 -21.527 168.687 -30.507 160.087 -39.007 168.687" style="fill: rgb(144, 24, 37);"/>
    <polygon class="fill" points="-76.657 159.957 -76.657 168.687 -67.917 168.687 -76.657 159.957" style="fill: rgb(144, 24, 37);"/>
    <polygon class="fill" points="16.133 159.957 16.133 168.687 7.393 168.687 16.133 159.957" style="fill: rgb(144, 24, 37);"/>
    <polygon class="fill" points="-76.657 175.367 -76.657 184.727 -68.517 188.777 -30.267 205.367 16.133 185.067 16.133 175.367 -30.277 195.437 -76.657 175.367" style="fill: rgb(144, 24, 37);"/>
    <path class="fill" d="M 16.133 191.807 L -30.277 212.067 L -76.677 191.807 L -76.677 246.297 L -30.277 266.397 L 16.123 246.297 L 16.133 191.807 Z M -34.437 255.697 L -68.337 241.007 L -68.337 204.447 L -34.447 219.147 L -34.437 255.697 Z M 7.793 241.007 L -26.107 255.687 L -26.107 219.127 L 7.793 204.447 L 7.793 241.007 Z" style="fill: rgb(144, 24, 37);"/>
  </g>
</svg>