<svg width="24" height="24" viewBox="0 0 24 24" fill="none" xmlns="http://www.w3.org/2000/svg">
<mask id="mask0_7_43521" style="mask-type:alpha" maskUnits="userSpaceOnUse" x="0" y="0" width="24" height="24">
<rect width="24" height="24" fill="#D9D9D9"/>
</mask>
<g mask="url(#mask0_7_43521)">
<path d="M3 9.65V7.525L7.525 3H9.65L3 9.65ZM3 4.75V3H4.75L3 4.75ZM16.175 6.425C16.0083 6.24167 15.8292 6.0625 15.6375 5.8875C15.4458 5.7125 15.25 5.55833 15.05 5.425L17.475 3H19.6L16.175 6.425ZM5.5 14.975L7.425 13.05C7.54167 13.2333 7.6625 13.4 7.7875 13.55C7.9125 13.7 8.05 13.8417 8.2 13.975C7.73333 14.0917 7.2625 14.2375 6.7875 14.4125C6.3125 14.5875 5.88333 14.775 5.5 14.975ZM17.5 10.05V10C17.5 9.68333 17.475 9.375 17.425 9.075C17.375 8.775 17.3 8.48333 17.2 8.2L21 4.4V6.55L17.5 10.05ZM10.9 4.6L12.525 3H14.65L13.05 4.6C12.8667 4.56667 12.6917 4.54167 12.525 4.525C12.3583 4.50833 12.1833 4.5 12 4.5C11.8167 4.5 11.6333 4.50833 11.45 4.525C11.2667 4.54167 11.0833 4.56667 10.9 4.6ZM3 14.625V12.5L6.6 8.9C6.56667 9.08333 6.54167 9.26667 6.525 9.45C6.50833 9.63333 6.5 9.81667 6.5 10C6.5 10.1833 6.50833 10.3583 6.525 10.525C6.54167 10.6917 6.56667 10.8583 6.6 11.025L3 14.625ZM20.725 16.7C20.5917 16.5 20.4375 16.3083 20.2625 16.125C20.0875 15.9417 19.9 15.775 19.7 15.625L21 14.325V16.45L20.725 16.7ZM17.825 14.65C17.7083 14.6 17.5917 14.5542 17.475 14.5125C17.3583 14.4708 17.2417 14.4333 17.125 14.4C16.975 14.35 16.8292 14.3 16.6875 14.25C16.5458 14.2 16.4 14.1583 16.25 14.125L21 9.35V11.5L17.825 14.65ZM12 14C10.9 14 9.95833 13.6083 9.175 12.825C8.39167 12.0417 8 11.1 8 10C8 8.9 8.39167 7.95833 9.175 7.175C9.95833 6.39167 10.9 6 12 6C13.1 6 14.0417 6.39167 14.825 7.175C15.6083 7.95833 16 8.9 16 10C16 11.1 15.6083 12.0417 14.825 12.825C14.0417 13.6083 13.1 14 12 14ZM12 12C12.55 12 13.0208 11.8042 13.4125 11.4125C13.8042 11.0208 14 10.55 14 10C14 9.45 13.8042 8.97917 13.4125 8.5875C13.0208 8.19583 12.55 8 12 8C11.45 8 10.9792 8.19583 10.5875 8.5875C10.1958 8.97917 10 9.45 10 10C10 10.55 10.1958 11.0208 10.5875 11.4125C10.9792 11.8042 11.45 12 12 12ZM4 21V19.225C4 18.6583 4.14167 18.1333 4.425 17.65C4.70833 17.1667 5.1 16.8 5.6 16.55C6.45 16.1167 7.4125 15.75 8.4875 15.45C9.5625 15.15 10.7333 15 12 15C13.2667 15 14.4375 15.15 15.5125 15.45C16.5875 15.75 17.55 16.1167 18.4 16.55C18.9 16.8 19.2917 17.1667 19.575 17.65C19.8583 18.1333 20 18.6583 20 19.225V21H4ZM6.025 19H17.975C17.9417 18.85 17.8833 18.7208 17.8 18.6125C17.7167 18.5042 17.6083 18.4167 17.475 18.35C16.875 18.05 16.1125 17.75 15.1875 17.45C14.2625 17.15 13.2 17 12 17C10.8 17 9.7375 17.15 8.8125 17.45C7.8875 17.75 7.125 18.05 6.525 18.35C6.39167 18.4167 6.28333 18.5083 6.2 18.625C6.11667 18.7417 6.05833 18.8667 6.025 19Z" fill="#1C1B1F"/>
</g>
</svg>
