<svg width="24" height="24" viewBox="0 0 24 24" fill="none" xmlns="http://www.w3.org/2000/svg">
<mask id="mask0_7_43567" style="mask-type:alpha" maskUnits="userSpaceOnUse" x="0" y="0" width="24" height="24">
<rect width="24" height="24" fill="#D9D9D9"/>
</mask>
<g mask="url(#mask0_7_43567)">
<path d="M12 17C12.2833 17 12.5208 16.9041 12.7125 16.7125C12.9041 16.5208 13 16.2833 13 16C13 15.7166 12.9041 15.4791 12.7125 15.2875C12.5208 15.0958 12.2833 15 12 15C11.7166 15 11.4791 15.0958 11.2875 15.2875C11.0958 15.4791 11 15.7166 11 16C11 16.2833 11.0958 16.5208 11.2875 16.7125C11.4791 16.9041 11.7166 17 12 17ZM11 13H13V6.99995H11V13ZM12 23.3L8.64995 20H3.99995V15.35L0.699951 12L3.99995 8.64995V3.99995H8.64995L12 0.699951L15.35 3.99995H20V8.64995L23.3 12L20 15.35V20H15.35L12 23.3ZM12 20.5L14.5 18H18V14.5L20.5 12L18 9.49995V5.99995H14.5L12 3.49995L9.49995 5.99995H5.99995V9.49995L3.49995 12L5.99995 14.5V18H9.49995L12 20.5Z" fill="#1C1B1F"/>
</g>
</svg>
