<svg width="14" height="17" viewBox="0 0 14 17" fill="none" xmlns="http://www.w3.org/2000/svg">
<path d="M5.125 13.25C4.68958 13.25 4.31684 13.0949 4.00677 12.7849C3.6967 12.4748 3.54167 12.1021 3.54167 11.6666V2.16665C3.54167 1.73123 3.6967 1.35849 4.00677 1.04842C4.31684 0.738348 4.68958 0.583313 5.125 0.583313H12.25C12.6854 0.583313 13.0582 0.738348 13.3682 1.04842C13.6783 1.35849 13.8333 1.73123 13.8333 2.16665V11.6666C13.8333 12.1021 13.6783 12.4748 13.3682 12.7849C13.0582 13.0949 12.6854 13.25 12.25 13.25H5.125ZM5.125 11.6666H12.25V2.16665H5.125V11.6666ZM1.95833 16.4166C1.52292 16.4166 1.15017 16.2616 0.840104 15.9515C0.530035 15.6415 0.375 15.2687 0.375 14.8333V3.74998H1.95833V14.8333H10.6667V16.4166H1.95833Z" fill="#1C1B1F"/>
</svg>
