<svg width="24" height="24" viewBox="0 0 24 24" fill="none" xmlns="http://www.w3.org/2000/svg">
<path d="M21.8055 10.0415H21V10H12V14H17.6515C16.827 16.3285 14.6115 18 12 18C8.6865 18 6 15.3135 6 12C6 8.6865 8.6865 6 12 6C13.5295 6 14.921 6.577 15.9805 7.5195L18.809 4.691C17.023 3.0265 14.634 2 12 2C6.4775 2 2 6.4775 2 12C2 17.5225 6.4775 22 12 22C17.5225 22 22 17.5225 22 12C22 11.3295 21.931 10.675 21.8055 10.0415Z" fill="#E6E6E6"/>
<path d="M3.15302 7.3455L6.43851 9.755C7.32752 7.554 9.48052 6 12 6C13.5295 6 14.921 6.577 15.9805 7.5195L18.809 4.691C17.023 3.0265 14.634 2 12 2C8.15902 2 4.82802 4.1685 3.15302 7.3455Z" fill="#E6E6E6"/>
<path d="M11.9025 22.0007C14.4855 22.0007 16.8325 21.0122 18.607 19.4047L15.512 16.7857C14.4743 17.5749 13.2062 18.0017 11.9025 18.0007C9.3015 18.0007 7.093 16.3422 6.261 14.0277L3 16.5402C4.655 19.7787 8.016 22.0007 11.9025 22.0007Z" fill="#E6E6E6"/>
<path d="M21.8055 10.0415H21V10H12V14H17.6515C17.2571 15.1082 16.5467 16.0766 15.608 16.7855L15.6095 16.7845L18.7045 19.4035C18.4855 19.6025 22 17 22 12C22 11.3295 21.931 10.675 21.8055 10.0415Z" fill="#E6E6E6"/>
</svg>
