<svg width="24" height="24" viewBox="0 0 24 24" fill="none" xmlns="http://www.w3.org/2000/svg">
<mask id="mask0_7_43454" style="mask-type:alpha" maskUnits="userSpaceOnUse" x="0" y="0" width="24" height="24">
<rect width="24" height="24" fill="#D9D9D9"/>
</mask>
<g mask="url(#mask0_7_43454)">
<path d="M19 8C19.2833 8 19.5208 7.90417 19.7125 7.7125C19.9042 7.52083 20 7.28333 20 7C20 6.71667 19.9042 6.47917 19.7125 6.2875C19.5208 6.09583 19.2833 6 19 6C18.7167 6 18.4792 6.09583 18.2875 6.2875C18.0958 6.47917 18 6.71667 18 7C18 7.28333 18.0958 7.52083 18.2875 7.7125C18.4792 7.90417 18.7167 8 19 8ZM19 10C18.15 10 17.4375 9.7125 16.8625 9.1375C16.2875 8.5625 16 7.85 16 7C16 6.16667 16.2875 5.45833 16.8625 4.875C17.4375 4.29167 18.15 4 19 4C19.8333 4 20.5417 4.29167 21.125 4.875C21.7083 5.45833 22 6.16667 22 7C22 7.85 21.7083 8.5625 21.125 9.1375C20.5417 9.7125 19.8333 10 19 10ZM12 7C12.4167 7 12.7708 6.85833 13.0625 6.575C13.3542 6.29167 13.5 5.93333 13.5 5.5C13.5 5.08333 13.3542 4.72917 13.0625 4.4375C12.7708 4.14583 12.4167 4 12 4C11.5667 4 11.2083 4.14583 10.925 4.4375C10.6417 4.72917 10.5 5.08333 10.5 5.5C10.5 5.93333 10.6417 6.29167 10.925 6.575C11.2083 6.85833 11.5667 7 12 7ZM12 9C11.0167 9 10.1875 8.6625 9.5125 7.9875C8.8375 7.3125 8.5 6.48333 8.5 5.5C8.5 4.53333 8.8375 3.70833 9.5125 3.025C10.1875 2.34167 11.0167 2 12 2C12.9667 2 13.7917 2.34167 14.475 3.025C15.1583 3.70833 15.5 4.53333 15.5 5.5C15.5 6.48333 15.1583 7.3125 14.475 7.9875C13.7917 8.6625 12.9667 9 12 9ZM8 13.375C8 13.875 8.26667 14.4583 8.8 15.125C9.33333 15.7917 10.4 16.85 12 18.3C13.5667 16.8833 14.625 15.8417 15.175 15.175C15.725 14.5083 16 13.9083 16 13.375C16 12.9917 15.875 12.6667 15.625 12.4C15.375 12.1333 15.0667 12 14.7 12C14.4667 12 14.2458 12.05 14.0375 12.15C13.8292 12.25 13.6583 12.3917 13.525 12.575L12.325 14H11.65L10.45 12.575C10.3167 12.3917 10.1458 12.25 9.9375 12.15C9.72917 12.05 9.51667 12 9.3 12C8.91667 12 8.60417 12.1333 8.3625 12.4C8.12083 12.6667 8 12.9917 8 13.375ZM6 13.375C6 12.4917 6.3 11.7083 6.9 11.025C7.5 10.3417 8.3 10 9.3 10C9.81667 10 10.3125 10.1167 10.7875 10.35C11.2625 10.5833 11.6667 10.9 12 11.3C12.3333 10.9 12.7333 10.5833 13.2 10.35C13.6667 10.1167 14.1667 10 14.7 10C15.7 10 16.5 10.3458 17.1 11.0375C17.7 11.7292 18 12.5083 18 13.375C18 14.2583 17.6792 15.1292 17.0375 15.9875C16.3958 16.8458 15.0833 18.1833 13.1 20L12 21L10.9 20C8.88333 18.1667 7.5625 16.825 6.9375 15.975C6.3125 15.125 6 14.2583 6 13.375ZM5 8C5.28333 8 5.52083 7.90417 5.7125 7.7125C5.90417 7.52083 6 7.28333 6 7C6 6.71667 5.90417 6.47917 5.7125 6.2875C5.52083 6.09583 5.28333 6 5 6C4.71667 6 4.47917 6.09583 4.2875 6.2875C4.09583 6.47917 4 6.71667 4 7C4 7.28333 4.09583 7.52083 4.2875 7.7125C4.47917 7.90417 4.71667 8 5 8ZM12.075 22V20H20V13H17.05V11H20C20.55 11 21.0208 11.1958 21.4125 11.5875C21.8042 11.9792 22 12.45 22 13V22H12.075ZM4 20H12.075V22H2V13C2 12.45 2.19167 11.9792 2.575 11.5875C2.95833 11.1958 3.43333 11 4 11H6.95V13H4V20ZM5 10C4.15 10 3.4375 9.7125 2.8625 9.1375C2.2875 8.5625 2 7.85 2 7C2 6.16667 2.2875 5.45833 2.8625 4.875C3.4375 4.29167 4.15 4 5 4C5.83333 4 6.54167 4.29167 7.125 4.875C7.70833 5.45833 8 6.16667 8 7C8 7.85 7.70833 8.5625 7.125 9.1375C6.54167 9.7125 5.83333 10 5 10Z" fill="#1C1B1F"/>
</g>
</svg>
